<?xml version="1.0" standalone="no"?>
<!DOCTYPE svg PUBLIC "-//W3C//DTD SVG 20010904//EN"
 "http://www.w3.org/TR/2001/REC-SVG-20010904/DTD/svg10.dtd">
<svg version="1.0" xmlns="http://www.w3.org/2000/svg"
 width="100.000000pt" height="100.000000pt" viewBox="0 0 100.000000 100.000000"
 preserveAspectRatio="xMidYMid meet">
<metadata>
Created by potrace 1.16, written by Peter Selinger 2001-2019
</metadata>
<g transform="translate(0.000000,100.000000) scale(0.012195,-0.012739)"
fill="#121212" stroke="none">
<path d="M2335 7444 c-148 -15 -306 -40 -405 -65 -427 -104 -812 -322 -1125
-634 -373 -373 -600 -828 -682 -1365 -24 -159 -24 -501 0 -660 78 -511 295
-959 635 -1311 90 -94 102 -110 102 -141 0 -68 31 -212 62 -285 101 -243 311
-416 571 -470 94 -19 97 -21 97 -99 0 -57 35 -187 70 -261 86 -186 244 -332
435 -403 71 -26 190 -50 249 -50 l43 0 6 -52 c8 -78 51 -204 94 -276 121 -203
317 -341 546 -383 34 -6 65 -16 69 -22 4 -7 8 -35 8 -63 0 -75 34 -198 80
-289 204 -407 706 -553 1104 -323 57 33 134 104 389 357 321 318 379 384 436
499 17 34 37 62 44 62 7 0 47 20 89 45 135 79 244 197 318 344 34 68 70 195
70 247 0 48 9 64 36 64 14 0 60 7 102 16 314 64 563 319 615 631 l13 78 72 7
c249 25 467 158 597 363 21 33 124 148 229 255 285 291 403 448 535 710 489
966 269 2145 -534 2863 -364 324 -781 519 -1275 594 -159 24 -501 24 -660 0
-452 -69 -837 -237 -1183 -517 l-87 -71 -80 66 c-338 281 -773 467 -1220 525
-90 12 -398 21 -465 14z m407 -509 c367 -48 687 -189 987 -433 13 -10 -57 -84
-501 -530 -456 -457 -521 -526 -562 -597 -127 -219 -145 -480 -49 -710 86
-206 278 -376 503 -447 65 -20 95 -23 225 -22 135 0 158 3 230 27 44 15 114
46 155 68 84 47 146 106 767 729 l363 365 890 -890 c636 -636 897 -903 917
-939 24 -44 28 -62 28 -131 0 -67 -5 -88 -27 -131 -28 -54 -77 -103 -131 -130
-49 -26 -163 -30 -228 -9 -51 16 -88 51 -649 610 -327 326 -610 600 -629 610
-44 22 -126 30 -177 16 -61 -16 -115 -61 -149 -122 -25 -45 -30 -65 -29 -119
0 -41 7 -78 18 -100 10 -19 278 -296 596 -615 643 -646 616 -612 614 -750 0
-58 -5 -80 -29 -124 -54 -99 -142 -151 -255 -151 -127 0 -96 -26 -735 610
-319 318 -596 586 -615 596 -25 13 -57 19 -110 19 -64 0 -82 -4 -123 -28 -112
-66 -156 -208 -100 -322 8 -16 273 -289 589 -605 615 -617 610 -611 620 -723
3 -29 -1 -71 -8 -96 l-13 -44 -40 67 c-77 132 -195 238 -344 310 -62 29 -137
51 -248 72 -20 4 -23 10 -23 57 -1 108 -44 249 -111 365 -19 31 -74 98 -124
147 -73 74 -107 100 -183 138 -97 50 -203 81 -313 92 l-66 6 -12 72 c-50 310
-316 578 -628 630 l-78 13 -7 76 c-22 236 -137 440 -324 574 -265 189 -632
195 -901 13 -27 -18 -186 -169 -354 -336 l-307 -305 -55 69 c-127 158 -245
376 -310 573 -303 915 121 1905 994 2319 184 87 393 148 584 169 128 15 344
13 467 -3z m3205 0 c420 -56 796 -241 1097 -541 509 -510 685 -1253 460 -1944
-73 -222 -193 -433 -366 -644 l-24 -28 -38 63 c-30 50 -267 292 -1045 1072
-580 581 -1025 1020 -1051 1035 -38 23 -56 27 -120 27 -53 0 -85 -6 -110 -19
-19 -10 -307 -290 -640 -622 -668 -666 -646 -648 -770 -648 -194 0 -329 182
-275 370 17 59 17 60 688 732 370 371 704 700 743 732 400 330 933 482 1451
415z m-3647 -2883 c63 -32 122 -102 140 -169 19 -66 8 -172 -23 -225 -14 -24
-155 -172 -314 -330 -322 -321 -337 -332 -453 -332 -171 1 -301 140 -288 308
3 35 15 81 28 106 24 48 542 578 613 627 84 59 199 65 297 15z m693 -782 c107
-40 180 -144 181 -259 2 -125 -3 -132 -328 -459 -332 -334 -356 -352 -476
-352 -211 0 -346 212 -260 407 16 36 87 114 298 325 152 153 293 290 314 304
81 57 178 69 271 34z m822 -735 c62 -30 109 -80 138 -144 29 -65 21 -190 -15
-252 -15 -24 -156 -173 -315 -331 -322 -320 -336 -331 -453 -331 -213 -1 -355
224 -260 414 21 42 503 539 594 612 89 71 207 83 311 32z m724 -796 c143 -72
198 -238 127 -383 -32 -66 -577 -611 -646 -647 -63 -33 -196 -34 -255 -2 -50
26 -121 102 -143 151 -24 56 -21 166 7 227 33 76 572 613 655 655 84 43 168
42 255 -1z"/>
</g>
</svg>
